<svg width="407" height="157" viewBox="0 0 407 157" fill="none" xmlns="http://www.w3.org/2000/svg">
<g clip-path="url(#clip0_86_10)">
<path d="M172.897 115.965C167.377 115.965 162.457 114.885 158.377 112.605C154.176 110.325 150.936 107.205 148.656 103.244C146.256 99.2841 145.176 94.7238 145.176 89.6835C145.176 84.5232 146.256 79.963 148.536 76.0027C150.696 72.1625 153.816 69.0423 157.776 66.7622C161.617 64.6021 166.057 63.402 170.977 63.402C176.018 63.402 180.458 64.4821 184.178 66.7622C188.018 68.9223 191.018 72.0425 193.179 76.0027C195.339 79.963 196.419 84.6432 196.419 89.9235C196.419 90.4036 196.419 90.7636 196.419 91.3636C196.419 91.8436 196.299 92.3237 196.299 92.8037H152.496V86.0833H191.378L187.658 88.3634C187.658 85.1233 187.058 82.1231 185.618 79.6029C184.178 76.9628 182.258 74.9227 179.738 73.4826C177.218 72.0425 174.337 71.3225 170.977 71.3225C167.737 71.3225 164.857 72.0425 162.337 73.4826C159.817 74.9227 157.897 76.9628 156.456 79.6029C155.016 82.2431 154.296 85.2433 154.296 88.6035V90.1635C154.296 93.5237 155.136 96.6439 156.696 99.2841C158.257 102.044 160.537 104.084 163.297 105.644C166.177 107.085 169.417 107.805 173.137 107.805C176.138 107.805 179.018 107.325 181.418 106.244C183.938 105.284 186.098 103.724 188.018 101.564L193.179 107.685C190.778 110.325 187.898 112.485 184.418 113.805C181.058 115.245 177.098 115.965 172.897 115.965ZM227.14 115.965C221.86 115.965 217.9 114.645 215.02 111.765C212.14 109.005 210.7 105.044 210.7 99.8841V52.6014H220.06V99.5241C220.06 102.284 220.78 104.444 222.22 105.884C223.54 107.325 225.58 108.165 228.101 108.165C231.101 108.165 233.501 107.325 235.421 105.644L238.301 112.365C236.981 113.685 235.181 114.525 233.261 115.125C231.221 115.725 229.181 115.965 227.14 115.965ZM202.059 71.5625V63.882H234.821V71.5625H202.059ZM249.582 115.365V63.882H258.942V115.365H249.582ZM254.262 54.0415C252.462 54.0415 251.022 53.4414 249.822 52.2414C248.622 51.0413 248.022 49.6012 248.022 47.9211C248.022 46.241 248.622 44.801 249.822 43.6009C251.022 42.4008 252.462 41.8008 254.262 41.8008C256.062 41.8008 257.622 42.4008 258.822 43.6009C260.022 44.6809 260.622 46.121 260.622 47.8011C260.622 49.4812 260.022 51.0413 258.822 52.2414C257.742 53.4414 256.182 54.0415 254.262 54.0415ZM290.264 115.365L267.703 63.882H277.423L297.464 110.565H292.784L313.185 63.882H322.306L299.745 115.365H290.264ZM331.066 115.365V63.882H340.427V115.365H331.066ZM335.747 54.0415C333.947 54.0415 332.386 53.4414 331.186 52.2414C329.986 51.0413 329.386 49.6012 329.386 47.9211C329.386 46.241 329.986 44.801 331.186 43.6009C332.386 42.4008 333.947 41.8008 335.747 41.8008C337.547 41.8008 339.107 42.4008 340.187 43.6009C341.387 44.6809 341.987 46.121 341.987 47.8011C341.987 49.4812 341.507 51.0413 340.307 52.2414C339.107 53.4414 337.547 54.0415 335.747 54.0415ZM380.269 115.965C375.109 115.965 370.429 114.885 366.468 112.605C362.388 110.325 359.268 107.205 356.868 103.244C354.588 99.2841 353.388 94.7238 353.388 89.6835C353.388 84.5232 354.588 79.963 356.868 76.0027C359.268 72.1625 362.388 69.0423 366.468 66.7622C370.429 64.6021 375.109 63.402 380.269 63.402C385.309 63.402 389.99 64.6021 393.95 66.7622C398.03 69.0423 401.15 72.0425 403.551 76.0027C405.831 79.963 406.911 84.5232 406.911 89.6835C406.911 94.7238 405.831 99.2841 403.551 103.244C401.15 107.205 398.03 110.325 393.95 112.605C389.99 114.885 385.309 115.965 380.269 115.965ZM380.269 107.805C383.509 107.805 386.51 107.085 389.15 105.644C391.79 104.084 393.83 102.044 395.27 99.2841C396.83 96.5239 397.55 93.2837 397.55 89.6835C397.55 85.9633 396.83 82.7231 395.27 80.083C393.83 77.4428 391.79 75.2827 389.15 73.8426C386.51 72.2825 383.509 71.5625 380.269 71.5625C376.909 71.5625 374.029 72.2825 371.389 73.8426C368.749 75.2827 366.708 77.4428 365.148 80.083C363.588 82.7231 362.868 85.9633 362.868 89.6835C362.868 93.2837 363.588 96.5239 365.148 99.2841C366.708 102.044 368.749 104.084 371.389 105.644C374.029 107.085 376.909 107.805 380.269 107.805Z" fill="white"/>
<path fill-rule="evenodd" clip-rule="evenodd" d="M106.776 132.886V131.206V129.526V127.846V126.166V124.366V122.686V121.005V119.325V117.645V115.965V114.285V112.605V110.925V109.245V107.565V105.885V104.205V102.524V100.844V99.1642V97.4841V95.804V94.1239V92.4438V90.7638V89.0837V87.4036V85.7235V83.9234V82.2433V80.5632V78.8831V77.203V75.5229V73.8428V72.1627V70.4826V68.8025V67.1224V65.4423V63.7622V62.0821V60.402V58.7219V57.0418V55.3617V53.6816V52.0015V50.3214V48.6413V46.9613V45.2812V43.4811V41.801V40.1209V38.4408V36.7607V35.0806V33.4005V31.7204V30.0403V28.3602V26.6801V25H0.0898438C0.0898438 53.4416 0.0898438 81.8832 0.0898438 110.325C7.53027 110.325 15.0907 110.325 22.5311 110.325C22.5311 118.125 22.5311 124.966 22.5311 132.886C50.6127 132.886 78.6943 132.886 106.776 132.886ZM36.5719 110.325V118.725H92.7351C92.7351 101.804 92.7351 84.8834 92.7351 67.9625V39.0408H14.1306V95.324H22.5311C22.5311 78.043 22.5311 64.8423 22.5311 47.5613C43.8923 47.5613 63.0934 47.5613 84.4547 47.5613C84.4547 68.4425 84.4547 89.4437 84.4547 110.325H36.5719ZM70.4139 60.402H36.5719V95.324H70.4139V60.402Z" fill="white"/>
</g>
<defs>
<clipPath id="clip0_86_10">
<rect width="407" height="107.886" fill="white" transform="translate(0 25)"/>
</clipPath>
</defs>
</svg>
