<svg width="407" height="157" viewBox="0 0 407 157" fill="none" xmlns="http://www.w3.org/2000/svg">
<g clip-path="url(#clip0_86_42)">
<g clip-path="url(#clip1_86_42)">
<path fill-rule="evenodd" clip-rule="evenodd" d="M33.5956 51.9848C40.1155 50.7562 47.2073 50.4487 52.985 54.3736C56.345 56.6366 58.6443 60.1649 59.3579 64.1525C61.1504 73.7172 56.8727 84.7204 49.7808 91.1565C49.5875 91.332 49.5129 91.4975 49.5176 91.7403C50.2978 93.0688 51.3949 94.0818 52.265 95.723C54.7145 100.343 55.5808 105.908 54.2987 110.992C53.7642 113.11 50.7668 118.84 49.4818 120.477H49.3579C48.9936 119.955 42.0858 116.296 41.0186 115.711C41.7339 114.671 42.283 113.563 42.9055 112.49C44.6359 109.506 45.6383 107.835 44.9631 104.198C44.5254 101.665 43.4388 99.2048 41.3185 97.6451C40.4993 97.0426 38.5067 98.4874 37.5797 98.8651C35.1423 99.8581 32.4917 101.09 29.8864 101.542C23.9942 102.563 17.4859 100.132 13.1613 96.1151C12.0755 95.1144 8.77201 91.6565 8 91.1251V90.9999C8.65217 90.5547 9.24331 89.8222 9.82356 89.2719C11.4738 87.7065 13.1619 85.5742 14.8086 84.0906C18.4704 87.5111 21.5211 92.0659 27.1892 92.1038C28.148 92.1103 31.2004 91.0908 31.8076 90.6481L31.9244 90.4357C31.6299 89.9421 30.5223 89.2623 30.1567 88.9135C29.2437 88.0427 23.5323 84.0513 23.176 83.1347C23.5766 81.5527 24.4508 79.1774 24.9927 77.5654L31.6074 57.7451C32.1891 56.0025 32.9037 53.629 33.5956 51.9848ZM40.9084 60.8351C40.4355 61.7213 39.019 66.148 38.6269 67.3552C37.2629 71.5539 35.7526 75.8055 34.4197 80.0053C35.4845 80.5829 40.387 84.5476 41.3046 85.4661C41.709 85.1227 42.3237 84.5517 42.7195 84.2477C46.2212 81.6743 49.2445 75.729 49.7988 71.4898C50.128 68.9719 50.4022 65.812 48.8021 63.6505C47.6186 62.0416 45.6149 61.3537 43.7099 61.0684C43.0663 60.972 41.5695 60.8249 40.9084 60.8351Z" fill="white"/>
<path fill-rule="evenodd" clip-rule="evenodd" d="M117.533 51.4643C126.543 51.4581 138.662 50.5196 144.243 59.5104C146.047 62.4141 146.244 65.4246 146.256 68.7394C146.508 69.0104 146.518 69.0799 146.618 69.4406L146.816 69.568L146.835 69.4979C147.037 68.7205 147.219 66.3562 147.316 65.4984L148.432 55.6434C148.51 54.9631 148.722 52.6843 148.897 52.1307C149.53 51.6488 160.838 52.0009 162.683 51.8653C162.68 53.7692 162.008 58.4556 161.769 60.577L159.727 78.6632C159.422 81.3785 158.856 84.4285 158.988 87.1206C159.328 91.3664 161.811 94.2739 166.008 94.9094C173.757 96.0824 179.363 92.0047 180.094 84.1537C180.306 81.8861 180.622 79.3207 180.881 77.0233L182.631 61.6361C182.983 58.4925 183.28 55.0183 183.79 51.925C187.873 51.8407 193.307 52.1323 197.229 51.8686C197.534 52.0711 197.569 52.1987 197.541 52.5382C197.539 52.571 197.535 52.6057 197.532 52.6428C197 58.6931 196.131 65.0996 195.457 71.1682L194.441 80.241C193.982 84.2921 193.709 87.7854 192.31 91.6432C187.747 104.334 176.328 109.086 163.503 108.001C150.652 106.914 143.948 98.0959 145.075 85.4604C145.385 81.9823 146.119 77.7849 146.264 74.3538C146.103 73.4254 146.48 72.9446 145.851 72.264C144.895 78.4171 141.943 83.2089 136.471 86.3275C135.781 86.7204 134.85 87.0182 134.254 87.5096C134.114 88.0096 136.614 91.9435 137.004 92.605L142.499 101.95C143.032 102.849 144.794 105.683 145.017 106.505C144.697 106.779 130.868 106.662 129.256 106.704C127.05 102.917 125.006 98.8145 122.825 94.9942C122.162 93.8337 120.742 90.9629 120.028 90.0653C119.354 89.7363 113.307 89.8687 112.073 89.8601C111.862 90.8979 111.716 92.9539 111.567 94.0743C111.019 98.2069 110.747 102.559 110.105 106.668L101.511 106.671C99.8624 106.67 97.9502 106.624 96.3203 106.723C96.3618 105.078 96.6224 103.286 96.8148 101.639L101.762 57.8706C101.92 56.4638 102.252 52.7937 102.571 51.6451C102.982 51.4732 103.517 51.4593 103.963 51.4551L117.533 51.4643ZM130.64 65.6861C128.85 63.1224 125.249 63.0781 122.5 63.1654C120.165 63.1682 117.697 63.2541 115.375 63.1432C115.15 63.365 115.036 63.5227 115.019 63.8623C114.927 65.6929 113.054 78.2465 113.503 79.0377C114.527 79.2795 123.337 79.1542 125.007 78.9505C125.984 78.831 127.336 78.1467 128.199 77.6132L128.327 77.5334C131.799 74.8651 133.313 69.514 130.64 65.6861ZM146.628 71.9628C146.6 72.2078 146.569 72.4528 146.538 72.6891L146.584 72.3292C146.599 72.2078 146.615 72.0853 146.628 71.9628ZM146.024 70.2522C145.993 70.4953 145.965 70.7421 145.941 70.9824L145.966 70.7404C145.984 70.5781 146.004 70.4143 146.024 70.2522Z" fill="white"/>
<path fill-rule="evenodd" clip-rule="evenodd" d="M355.413 51.5179C356.897 51.4119 358.765 51.4605 360.275 51.4595L375.89 51.461C384.072 51.4655 394.077 52.4456 397.839 61.1982C398.347 62.3799 398.425 63.9317 398.984 65.0177L399.004 65.0559V70.1127C398.574 70.6174 398.484 72.985 398.312 73.82C397.357 78.6065 394.544 82.8196 390.491 85.5371C389.245 86.3587 387.839 86.9018 386.783 87.6041C390.458 93.7456 394.447 100.424 397.955 106.645C395.374 106.836 384.33 106.636 382.114 106.591C381.761 106.583 373.719 91.6541 372.675 89.8403C371.31 89.8855 365.755 89.7412 364.991 90.0277C364.429 90.8105 363.639 100.954 363.34 102.608C363.189 103.446 363.158 105.428 362.823 106.363C362.786 106.466 362.743 106.579 362.637 106.588C361.342 106.702 349.548 106.756 349.129 106.576C348.904 105.907 349.714 100.258 349.852 98.9899L352.521 75.3774C352.823 72.7784 354.858 52.5307 355.413 51.5179ZM367.911 63.113C367.535 63.861 366.052 77.6512 366.058 79.1675C368.199 79.0278 370.515 79.1492 372.672 79.1284C375.738 79.0986 378.433 79.4741 381.062 77.4794C386.206 73.7102 386.247 64.2428 378.943 63.2728C376.374 62.9315 373.259 63.3159 370.642 63.1817C369.77 63.137 368.771 63.2553 367.911 63.113Z" fill="white"/>
<path d="M301.463 51.9449C302.99 51.8156 306.181 51.924 307.807 51.9129C309.368 51.9021 312.925 51.8245 314.351 52.005C314.44 53.0348 313.937 56.5562 313.8 57.7663L312.516 69.2462L309.853 92.7581C309.373 97.0688 308.898 102.42 308.247 106.651C306.25 106.794 302.718 106.673 300.602 106.673L285.347 106.67C284.954 105.773 284.287 103.395 283.981 102.384L273.698 68.5901C273.476 67.8655 272.196 63.3636 271.937 63.0669C271.181 62.6947 270.872 62.9779 270.767 63.7386C270.372 66.5982 270.148 69.4771 269.812 72.3421L267.424 93.2376L266.582 100.688C266.47 101.747 266.187 106.1 265.664 106.597C264.604 106.866 255.238 106.591 253.47 106.614C253.417 106.614 253.217 106.568 253.216 106.486C253.183 104.189 253.961 98.5735 254.194 96.5321L257.738 65.2141L258.669 56.9056C258.839 55.377 258.99 53.3451 259.335 51.8938C266.689 52.1095 274.639 51.8586 282.076 51.9275C283.165 54.9076 284.385 59.4882 285.347 62.642L294.118 91.4721C294.333 92.1793 295.147 95.3436 295.669 95.6519C295.915 95.658 296.084 95.6909 296.279 95.5373C296.858 94.5618 297.235 89.1653 297.391 87.7762L298.794 75.5127C299.655 67.7279 300.703 59.712 301.463 51.9449Z" fill="white"/>
<path d="M352.713 51.8945C352.772 53.0035 352.316 56.3027 352.154 57.5957C351.93 59.4042 351.758 61.5768 351.488 63.3343C349.362 63.3141 331.107 63.1228 330.52 63.491C330.229 64.0037 329.223 72.3362 329.356 72.9788C330.39 73.2461 347.046 73.2847 348.756 73.0788C348.968 73.1702 349.087 73.2847 349.147 73.4205C349.274 73.7061 349.141 74.0864 349.085 74.5465C348.879 77.5178 348.37 80.5478 348.102 83.5236C348.072 83.858 348.033 84.2333 347.982 84.5628C341.416 84.4921 334.489 84.4618 327.928 84.5412C327.791 85.8263 326.712 94.6794 326.924 95.1056C327.607 95.5741 344.835 95.1099 347.099 95.2644C347.253 95.2751 347.804 95.2346 347.987 95.2008L348.259 95.4113C348.266 95.4885 348.269 95.5516 348.27 95.6072C348.27 95.6259 348.271 95.6437 348.27 95.6609C348.269 95.8028 348.246 95.9057 348.208 96.1124C348.154 97.3696 347.219 105.774 346.922 106.543C346.571 106.748 340.815 106.675 339.912 106.675L317.994 106.669C317.032 106.669 312.522 106.848 312.059 106.42C312.16 104.668 312.453 102.565 312.648 100.792L318.194 51.9457C319.205 51.8708 320.804 51.9164 321.865 51.9164L328.537 51.9167C336.512 51.9178 344.757 52.0288 352.713 51.8945Z" fill="white"/>
<path d="M255.488 51.8652C255.328 54.5035 254.879 57.7033 254.573 60.3785L250.381 97.3554C250.262 98.3982 249.505 106.117 249.209 106.695C246.794 106.619 244.145 106.672 241.717 106.672L226.367 106.662C225.267 103.297 224.265 99.8125 223.227 96.421L216.532 74.4447L214.243 66.885C213.977 66.0043 213.396 63.8394 213.026 63.1489C211.853 62.3883 211.862 63.6725 211.741 64.2945C210.847 68.8733 207.718 105.406 206.766 106.611C205.772 106.746 203.359 106.677 202.281 106.674L194.121 106.666C194.116 106.056 194.325 104.638 194.4 103.98L195.04 98.4122L199.504 58.9761C199.623 57.9335 200.123 52.5934 200.39 51.8872C202.832 51.9933 205.852 51.9164 208.331 51.9166L223.085 51.9068C223.741 53.3888 224.934 57.8541 225.492 59.6848L232.338 82.1631L234.528 89.3277C234.866 90.4614 236.039 94.9386 236.726 95.6252C237.055 95.6949 237.095 95.6852 237.405 95.5516C238.192 94.5123 240.556 66.3125 241.279 62.7635C241.749 60.454 241.909 54.6013 242.599 51.9071C246.096 51.9382 252.11 52.0691 255.488 51.8652Z" fill="white"/>
<path d="M61.1371 37.0342C66.4641 36.5877 71.1341 40.568 71.5376 45.8984C71.9409 51.2287 67.9231 55.8665 62.5896 56.2269C57.3168 56.5831 52.7431 52.6208 52.3443 47.3509C51.9454 42.0812 55.8707 37.4756 61.1371 37.0342Z" fill="white"/>
</g>
</g>
<defs>
<clipPath id="clip0_86_42">
<rect width="407" height="157" fill="white"/>
</clipPath>
<clipPath id="clip1_86_42">
<rect width="391" height="83.4948" fill="white" transform="translate(8 37)"/>
</clipPath>
</defs>
</svg>
